<?xml version="1.0" encoding="utf-8"?>
<!-- Generator: Adobe Illustrator 22.0.1, SVG Export Plug-In . SVG Version: 6.00 Build 0)  -->
<svg version="1.1" id="Слой_1" xmlns="http://www.w3.org/2000/svg" xmlns:xlink="http://www.w3.org/1999/xlink" x="0px" y="0px"
	 viewBox="0 0 148.7 284.1" style="enable-background:new 0 0 148.7 284.1;" xml:space="preserve">
<style type="text/css">
	.st0{fill:#fff;stroke:#fff;stroke-width:11;stroke-miterlimit:10;}
</style>
<rect x="32.7" y="94.6" class="st0" width="110" height="183"/>
<path class="st0" d="M51.2,95.1v-3.7c0-11.8,9.5-21.3,21.3-21.3h30.4c11.8,0,21.3,9.5,21.3,21.3v3.5"/>
<path class="st0" d="M71.4,70.1v-21c0-2.2,1.8-4,4-4h24.8c2.1,0,3.8,1.7,3.8,3.8v21.1"/>
<line class="st0" x1="32.4" y1="130.6" x2="142.7" y2="130.6"/>
<line class="st0" x1="32.7" y1="207.8" x2="142.7" y2="207.8"/>
<line class="st0" x1="32.7" y1="253.1" x2="142.7" y2="253.1"/>
<circle cx="40.4" cy="36.6" r="6"/>
<circle cx="6.9" cy="36.1" r="6"/>
<circle cx="22.9" cy="52.1" r="6"/>
<circle cx="6.9" cy="64.1" r="6"/>
<circle cx="22.9" cy="21.1" r="6"/>
<circle cx="6.9" cy="7.1" r="6"/>
</svg>
